<svg xmlns="http://www.w3.org/2000/svg" xml:space="preserve" viewBox="0 0 1391.8 498.4"><style>.st2{fill:#fff}</style><g id="glot.io-logo" style="opacity:.3"><path id="g_2_" d="M483.1 222.1c0 38.6-23.7 67-59.5 78.1-10.2 3.3-10.5 7.9-10.5 14.9s.2 11.6 10.5 14.9c36.7 11.6 59.5 39.5 59.5 78.1 0 51.2-40 83.7-99.1 83.7s-99.5-32.6-99.5-83.7c0-41.4 26.5-70.7 68.4-80.5-2.3-3.8-3-7-3-12.6s.9-9.4 3-12.6c-41.9-9.8-68.4-39.1-68.4-80.5 0-51.2 40.5-83.7 99.5-83.7 28.8 0 68.8 6 99.1 14zM384 190.9c-22.8 0-37.2 12.1-37.2 31.2s14.4 31.2 37.2 31.2 37.2-12.1 37.2-31.2v-26.5c-10.7-2.8-24.2-4.7-37.2-4.7m0 186.1c-22.8 0-37.2 12.1-37.2 31.2s14.4 31.2 37.2 31.2 37.2-12.1 37.2-31.2S406.8 377 384 377"/><path id="l_2_" d="M561.6 365.7c-39.1 0-61.9-19.1-61.9-61.9V45.7h61.9v251.6c0 11.6 4.7 15.8 15.3 15.8 7.9 0 15.8-2.3 21.9-4.7v51.2c-9.8 3.3-24.6 6.1-37.2 6.1"/><path id="o_5_" d="M715.8 366.7c-70.2 0-111.6-47-111.6-114.4 0-67.9 41.4-114.9 111.6-114.9 70.7 0 111.6 47 111.6 114.9 0 67.4-40.9 114.4-111.6 114.4m0-176.8c-29.3 0-46.5 21.4-46.5 62.3 0 40.5 17.2 61.9 46.5 61.9 29.8 0 46.5-21.4 46.5-61.9 0-40.9-16.8-62.3-46.5-62.3"/><path id="t_2_" d="M967.4 196.8v-53.9H923V77.7l-61.9 9v56.2h-33v53.9h33v107c0 42.8 22.8 61.9 61.9 61.9 12.6 0 27.4-2.8 37.2-6v-51.2c-6 2.3-14 4.7-21.9 4.7-10.7 0-15.3-4.2-15.3-15.8V196.8z"/><path id="dot_2_" d="M1012.5 365.7c-20.5 0-37.2-16.3-37.2-37.2 0-20.5 16.7-37.2 37.2-37.2 20.9 0 37.2 16.7 37.2 37.2 0 20.9-16.2 37.2-37.2 37.2"/><g id="i_2_"><path d="M1098 123.5c20.9 0 37.2-16.3 37.2-37.2 0-20.5-16.3-37.2-37.2-37.2-20.5 0-37.2 16.7-37.2 37.2 0 20.9 16.7 37.2 37.2 37.2M1069 142.9h61.3v216.8H1069z"/></g><path id="o_4_" d="M1271.5 365.7c-70.2 0-111.6-47-111.6-114.4 0-67.9 41.4-114.9 111.6-114.9 70.7 0 111.6 47 111.6 114.9 0 67.4-40.9 114.4-111.6 114.4m0-176.8c-29.3 0-46.5 21.4-46.5 62.3 0 40.5 17.2 61.9 46.5 61.9 29.8 0 46.5-21.4 46.5-61.9 0-40.9-16.7-62.3-46.5-62.3"/><path id="icon_2_" d="M164.3 85.5H27v262.7h196.7V151.5zm3.4 151.4-86 48.7v-38.3l43-23-43-22v-40l86 46.7z"/></g><g id="glot.io-logo_copy_2"><path id="g_1_" d="M473.1 208.1c0 38.6-23.7 67-59.5 78.1-10.2 3.3-10.5 7.9-10.5 14.9s.2 11.6 10.5 14.9c36.7 11.6 59.5 39.5 59.5 78.1 0 51.2-40 83.7-99.1 83.7s-99.5-32.6-99.5-83.7c0-41.4 26.5-70.7 68.4-80.5-2.3-3.8-3-7-3-12.6s.9-9.4 3-12.6c-41.9-9.8-68.4-39.1-68.4-80.5 0-51.2 40.5-83.7 99.5-83.7 28.8 0 68.8 6 99.1 14zM374 176.9c-22.8 0-37.2 12.1-37.2 31.2s14.4 31.2 37.2 31.2 37.2-12.1 37.2-31.2v-26.5c-10.7-2.8-24.2-4.7-37.2-4.7m0 186.1c-22.8 0-37.2 12.1-37.2 31.2s14.4 31.2 37.2 31.2 37.2-12.1 37.2-31.2S396.8 363 374 363" class="st2"/><path id="l_1_" d="M551.6 351.7c-39.1 0-61.9-19.1-61.9-61.9V31.7h61.9v251.6c0 11.6 4.7 15.8 15.3 15.8 7.9 0 15.8-2.3 21.9-4.7v51.2c-9.8 3.3-24.6 6.1-37.2 6.1" class="st2"/><path id="o_2_" d="M705.8 352.7c-70.2 0-111.6-47-111.6-114.4 0-67.9 41.4-114.9 111.6-114.9 70.7 0 111.6 47 111.6 114.9 0 67.4-40.9 114.4-111.6 114.4m0-176.8c-29.3 0-46.5 21.4-46.5 62.3 0 40.5 17.2 61.9 46.5 61.9 29.8 0 46.5-21.4 46.5-61.9 0-40.9-16.8-62.3-46.5-62.3" class="st2"/><path id="t_1_" d="M957.4 182.8v-53.9H913V63.7l-61.9 9v56.2h-33v53.9h33v107c0 42.8 22.8 61.9 61.9 61.9 12.6 0 27.4-2.8 37.2-6v-51.2c-6 2.3-14 4.7-21.9 4.7-10.7 0-15.3-4.2-15.3-15.8V182.8z" class="st2"/><path id="dot_1_" d="M1002.5 351.7c-20.5 0-37.2-16.3-37.2-37.2 0-20.5 16.7-37.2 37.2-37.2 20.9 0 37.2 16.7 37.2 37.2 0 20.9-16.2 37.2-37.2 37.2" class="st2"/><g id="i_1_"><path d="M1088 109.5c20.9 0 37.2-16.3 37.2-37.2 0-20.5-16.3-37.2-37.2-37.2-20.5 0-37.2 16.7-37.2 37.2 0 20.9 16.7 37.2 37.2 37.2M1059 128.9h61.3v216.8H1059z" class="st2"/></g><path id="o_1_" d="M1261.5 351.7c-70.2 0-111.6-47-111.6-114.4 0-67.9 41.4-114.9 111.6-114.9 70.7 0 111.6 47 111.6 114.9 0 67.4-40.9 114.4-111.6 114.4m0-176.8c-29.3 0-46.5 21.4-46.5 62.3 0 40.5 17.2 61.9 46.5 61.9 29.8 0 46.5-21.4 46.5-61.9 0-40.9-16.7-62.3-46.5-62.3" class="st2"/><path id="icon_1_" d="M154.3 71.5H17v262.7h196.7V137.5zm3.4 151.4-86 48.7v-38.3l43-23-43-22v-40l86 46.7z" class="st2"/></g></svg>